<mxfile host="app.diagrams.net" modified="2024-02-09T10:03:46.433Z" agent="Mozilla/5.0 (Windows NT 10.0; Win64; x64) AppleWebKit/537.36 (KHTML, like Gecko) Chrome/121.0.0.0 Safari/537.36" etag="upzwuvhRH73YEKAVyf6z" version="23.1.2" type="device">
  <diagram name="Page-1" id="dIZW6_p--HNFTBo7jAEs">
    <mxGraphModel dx="2284" dy="738" grid="1" gridSize="10" guides="1" tooltips="1" connect="1" arrows="1" fold="1" page="1" pageScale="1" pageWidth="850" pageHeight="1100" math="0" shadow="0">
      <root>
        <mxCell id="0" />
        <mxCell id="1" parent="0" />
        <mxCell id="28aCtGk1oSKQ_0A7ikTk-1" value="" style="swimlane;startSize=0;" vertex="1" parent="1">
          <mxGeometry x="390" y="130" width="510" height="410" as="geometry" />
        </mxCell>
        <mxCell id="28aCtGk1oSKQ_0A7ikTk-10" style="edgeStyle=orthogonalEdgeStyle;rounded=0;orthogonalLoop=1;jettySize=auto;html=1;exitX=1;exitY=0.5;exitDx=0;exitDy=0;dashed=1;" edge="1" parent="28aCtGk1oSKQ_0A7ikTk-1" source="28aCtGk1oSKQ_0A7ikTk-2" target="28aCtGk1oSKQ_0A7ikTk-5">
          <mxGeometry relative="1" as="geometry" />
        </mxCell>
        <mxCell id="28aCtGk1oSKQ_0A7ikTk-2" value="" style="ellipse;whiteSpace=wrap;html=1;aspect=fixed;fillColor=#ffe6cc;strokeColor=#d79b00;" vertex="1" parent="28aCtGk1oSKQ_0A7ikTk-1">
          <mxGeometry x="120" y="40" width="80" height="80" as="geometry" />
        </mxCell>
        <mxCell id="28aCtGk1oSKQ_0A7ikTk-20" style="edgeStyle=orthogonalEdgeStyle;rounded=0;orthogonalLoop=1;jettySize=auto;html=1;exitX=0;exitY=1;exitDx=0;exitDy=0;entryX=1;entryY=0;entryDx=0;entryDy=0;" edge="1" parent="28aCtGk1oSKQ_0A7ikTk-1" source="28aCtGk1oSKQ_0A7ikTk-5" target="28aCtGk1oSKQ_0A7ikTk-19">
          <mxGeometry relative="1" as="geometry" />
        </mxCell>
        <mxCell id="28aCtGk1oSKQ_0A7ikTk-5" value="" style="ellipse;whiteSpace=wrap;html=1;aspect=fixed;fillColor=#f8cecc;strokeColor=#b85450;" vertex="1" parent="28aCtGk1oSKQ_0A7ikTk-1">
          <mxGeometry x="360" y="80" width="80" height="80" as="geometry" />
        </mxCell>
        <mxCell id="28aCtGk1oSKQ_0A7ikTk-4" value="" style="ellipse;whiteSpace=wrap;html=1;aspect=fixed;fillColor=#dae8fc;strokeColor=#6c8ebf;" vertex="1" parent="28aCtGk1oSKQ_0A7ikTk-1">
          <mxGeometry x="180" y="240" width="80" height="80" as="geometry" />
        </mxCell>
        <mxCell id="28aCtGk1oSKQ_0A7ikTk-11" style="edgeStyle=orthogonalEdgeStyle;rounded=0;orthogonalLoop=1;jettySize=auto;html=1;exitX=1;exitY=1;exitDx=0;exitDy=0;" edge="1" parent="28aCtGk1oSKQ_0A7ikTk-1" source="28aCtGk1oSKQ_0A7ikTk-3" target="28aCtGk1oSKQ_0A7ikTk-4">
          <mxGeometry relative="1" as="geometry" />
        </mxCell>
        <mxCell id="28aCtGk1oSKQ_0A7ikTk-3" value="" style="ellipse;whiteSpace=wrap;html=1;aspect=fixed;fillColor=#d5e8d4;strokeColor=#82b366;" vertex="1" parent="28aCtGk1oSKQ_0A7ikTk-1">
          <mxGeometry x="60" y="180" width="80" height="80" as="geometry" />
        </mxCell>
        <mxCell id="28aCtGk1oSKQ_0A7ikTk-17" value="" style="ellipse;whiteSpace=wrap;html=1;aspect=fixed;fillColor=#ffe6cc;strokeColor=#d79b00;" vertex="1" parent="28aCtGk1oSKQ_0A7ikTk-1">
          <mxGeometry x="50" y="290" width="80" height="80" as="geometry" />
        </mxCell>
        <mxCell id="28aCtGk1oSKQ_0A7ikTk-19" value="" style="ellipse;whiteSpace=wrap;html=1;aspect=fixed;fillColor=#fff2cc;strokeColor=#d6b656;" vertex="1" parent="28aCtGk1oSKQ_0A7ikTk-1">
          <mxGeometry x="170" y="130" width="80" height="80" as="geometry" />
        </mxCell>
        <mxCell id="28aCtGk1oSKQ_0A7ikTk-7" style="edgeStyle=orthogonalEdgeStyle;rounded=0;orthogonalLoop=1;jettySize=auto;html=1;exitX=0.5;exitY=0.5;exitDx=0;exitDy=0;exitPerimeter=0;entryX=0;entryY=0.5;entryDx=0;entryDy=0;" edge="1" parent="1" source="28aCtGk1oSKQ_0A7ikTk-6" target="28aCtGk1oSKQ_0A7ikTk-2">
          <mxGeometry relative="1" as="geometry" />
        </mxCell>
        <mxCell id="28aCtGk1oSKQ_0A7ikTk-6" value="Actor" style="shape=umlActor;verticalLabelPosition=bottom;verticalAlign=top;html=1;outlineConnect=0;" vertex="1" parent="1">
          <mxGeometry x="-130" y="280" width="30" height="60" as="geometry" />
        </mxCell>
        <mxCell id="28aCtGk1oSKQ_0A7ikTk-9" style="edgeStyle=orthogonalEdgeStyle;rounded=0;orthogonalLoop=1;jettySize=auto;html=1;exitX=0.5;exitY=0.5;exitDx=0;exitDy=0;exitPerimeter=0;" edge="1" parent="1" source="28aCtGk1oSKQ_0A7ikTk-8" target="28aCtGk1oSKQ_0A7ikTk-3">
          <mxGeometry relative="1" as="geometry" />
        </mxCell>
        <mxCell id="28aCtGk1oSKQ_0A7ikTk-8" value="Actor" style="shape=umlActor;verticalLabelPosition=bottom;verticalAlign=top;html=1;outlineConnect=0;" vertex="1" parent="1">
          <mxGeometry x="-100" y="380" width="30" height="60" as="geometry" />
        </mxCell>
        <mxCell id="28aCtGk1oSKQ_0A7ikTk-18" style="edgeStyle=orthogonalEdgeStyle;rounded=0;orthogonalLoop=1;jettySize=auto;html=1;exitX=0;exitY=0;exitDx=0;exitDy=52.5;exitPerimeter=0;" edge="1" parent="1" source="28aCtGk1oSKQ_0A7ikTk-12" target="28aCtGk1oSKQ_0A7ikTk-5">
          <mxGeometry relative="1" as="geometry" />
        </mxCell>
        <mxCell id="28aCtGk1oSKQ_0A7ikTk-12" value="Cluster DB" style="shape=cylinder3;whiteSpace=wrap;html=1;boundedLbl=1;backgroundOutline=1;size=15;" vertex="1" parent="1">
          <mxGeometry x="980" y="50" width="60" height="80" as="geometry" />
        </mxCell>
        <mxCell id="28aCtGk1oSKQ_0A7ikTk-13" style="edgeStyle=orthogonalEdgeStyle;rounded=0;orthogonalLoop=1;jettySize=auto;html=1;exitX=1;exitY=0;exitDx=0;exitDy=0;entryX=0;entryY=0.5;entryDx=0;entryDy=0;entryPerimeter=0;" edge="1" parent="1" source="28aCtGk1oSKQ_0A7ikTk-5" target="28aCtGk1oSKQ_0A7ikTk-12">
          <mxGeometry relative="1" as="geometry" />
        </mxCell>
        <mxCell id="28aCtGk1oSKQ_0A7ikTk-14" style="edgeStyle=orthogonalEdgeStyle;rounded=0;orthogonalLoop=1;jettySize=auto;html=1;exitX=1;exitY=0.5;exitDx=0;exitDy=0;entryX=0.5;entryY=1;entryDx=0;entryDy=0;entryPerimeter=0;" edge="1" parent="1" source="28aCtGk1oSKQ_0A7ikTk-4" target="28aCtGk1oSKQ_0A7ikTk-12">
          <mxGeometry relative="1" as="geometry" />
        </mxCell>
        <mxCell id="28aCtGk1oSKQ_0A7ikTk-16" style="edgeStyle=orthogonalEdgeStyle;rounded=0;orthogonalLoop=1;jettySize=auto;html=1;exitX=0.5;exitY=0.5;exitDx=0;exitDy=0;exitPerimeter=0;entryX=0;entryY=0.5;entryDx=0;entryDy=0;" edge="1" parent="1" source="28aCtGk1oSKQ_0A7ikTk-15" target="28aCtGk1oSKQ_0A7ikTk-17">
          <mxGeometry relative="1" as="geometry" />
        </mxCell>
        <mxCell id="28aCtGk1oSKQ_0A7ikTk-15" value="Actor" style="shape=umlActor;verticalLabelPosition=bottom;verticalAlign=top;html=1;outlineConnect=0;" vertex="1" parent="1">
          <mxGeometry x="-20" y="490" width="30" height="60" as="geometry" />
        </mxCell>
        <mxCell id="28aCtGk1oSKQ_0A7ikTk-21" style="edgeStyle=orthogonalEdgeStyle;rounded=0;orthogonalLoop=1;jettySize=auto;html=1;exitX=0;exitY=0.5;exitDx=0;exitDy=0;entryX=0.5;entryY=0.5;entryDx=0;entryDy=0;entryPerimeter=0;" edge="1" parent="1" source="28aCtGk1oSKQ_0A7ikTk-19" target="28aCtGk1oSKQ_0A7ikTk-6">
          <mxGeometry relative="1" as="geometry" />
        </mxCell>
        <mxCell id="28aCtGk1oSKQ_0A7ikTk-22" value="" style="whiteSpace=wrap;html=1;aspect=fixed;" vertex="1" parent="1">
          <mxGeometry x="380" y="640" width="330" height="330" as="geometry" />
        </mxCell>
        <mxCell id="28aCtGk1oSKQ_0A7ikTk-23" value="Singlenton" style="rounded=0;whiteSpace=wrap;html=1;" vertex="1" parent="1">
          <mxGeometry x="390" y="690" width="90" height="270" as="geometry" />
        </mxCell>
        <mxCell id="28aCtGk1oSKQ_0A7ikTk-24" value="" style="rounded=0;whiteSpace=wrap;html=1;" vertex="1" parent="1">
          <mxGeometry x="560" y="690" width="140" height="270" as="geometry" />
        </mxCell>
        <mxCell id="28aCtGk1oSKQ_0A7ikTk-25" value="" style="shape=process;whiteSpace=wrap;html=1;backgroundOutline=1;" vertex="1" parent="1">
          <mxGeometry x="570" y="890" width="120" height="60" as="geometry" />
        </mxCell>
        <mxCell id="28aCtGk1oSKQ_0A7ikTk-26" value="" style="shape=process;whiteSpace=wrap;html=1;backgroundOutline=1;" vertex="1" parent="1">
          <mxGeometry x="570" y="820" width="120" height="60" as="geometry" />
        </mxCell>
        <mxCell id="28aCtGk1oSKQ_0A7ikTk-27" value="" style="shape=process;whiteSpace=wrap;html=1;backgroundOutline=1;fillColor=#f5f5f5;fontColor=#333333;strokeColor=#666666;" vertex="1" parent="1">
          <mxGeometry x="570" y="750" width="120" height="60" as="geometry" />
        </mxCell>
      </root>
    </mxGraphModel>
  </diagram>
</mxfile>
